<?xml version="1.0" encoding="UTF-8" standalone="no"?>
<svg
   xmlns:dc="http://purl.org/dc/elements/1.1/"
   xmlns:cc="http://creativecommons.org/ns#"
   xmlns:rdf="http://www.w3.org/1999/02/22-rdf-syntax-ns#"
   xmlns:svg="http://www.w3.org/2000/svg"
   xmlns="http://www.w3.org/2000/svg"
   version="1.1"
   id="svg2"
   viewBox="0 0 200 200"
   height="200"
   width="200">
  <defs
     id="defs4" />
  <metadata
     id="metadata7">
    <rdf:RDF>
      <cc:Work
         rdf:about="">
        <dc:format>image/svg+xml</dc:format>
        <dc:type
           rdf:resource="http://purl.org/dc/dcmitype/StillImage" />
        <dc:title></dc:title>
      </cc:Work>
    </rdf:RDF>
  </metadata>
  <g
     transform="translate(0,-852.36216)"
     id="layer1">
    <path
       id="path4136"
       transform="translate(0,852.36216)"
       d="M 166.93359,12.199219 137.13867,29.878906 C 126.95578,21.03363 114.64651,16.249084 102,16.220703 83.551505,16.254907 66.162042,26.389561 54.931641,43.652344 L 32.400391,30.283203 24.066406,44.330078 47.560547,58.269531 c -1.990402,5.410286 -3.394066,11.095156 -4.177735,16.919922 L 15.734375,58.783203 7.3984375,72.830078 42.976562,93.939453 c 2.855443,30.719867 22.427991,55.611767 48.185547,61.281247 -18.176334,4.68783 -30.791269,13.65832 -33.496093,27.44532 17.585177,1.24787 33.720018,-3.13773 33.52539,-12.94336 l 0.04687,22.96093 16.332024,-0.0332 -0.0469,-23.45508 c 0.99709,13.60142 24.16619,14.64504 34.47656,13.13867 -4.50347,-17.93666 -18.16024,-25.10216 -34.504,-26.25 30.54994,-3.34555 53.92232,-33.56329 53.94922,-69.749996 -0.0119,-4.320543 -0.36231,-8.630545 -1.04687,-12.875 l 31.53515,-18.71289 -8.33398,-14.046875 -27.64649,16.404297 c -2.04566,-5.29613 -4.64245,-10.271247 -7.73046,-14.810547 l 27.04492,-16.046875 z"
       style="fill:none;fill-opacity:1;stroke:#000000;stroke-width:9;stroke-linecap:butt;stroke-linejoin:miter;stroke-miterlimit:4;stroke-dasharray:none;stroke-opacity:1" />
  </g>
</svg>
